<?xml version="1.0" encoding="utf-8"?>
<!-- Generator: Adobe Illustrator 23.0.5, SVG Export Plug-In . SVG Version: 6.00 Build 0)  -->
<svg version="1.1" xmlns="http://www.w3.org/2000/svg" xmlns:xlink="http://www.w3.org/1999/xlink" x="0px" y="0px"
	 viewBox="0 0 150 150" style="enable-background:new 0 0 150 150;" xml:space="preserve">
<style type="text/css">
	.st0{display:none;}
	.st1{display:inline;fill:#931711;}
	.st2{fill:#FFFFFF;}
</style>
<g id="Calque_2" class="st0">
	<rect x="-51.6" y="-27" class="st1" width="237.9" height="202.7"/>
</g>
<g id="Calque_1">
	<g>
		<path class="st2" d="M75.5,18c31.7,0,57.5,25.8,57.5,57.5S107.2,133,75.5,133S18,107.2,18,75.5S43.8,18,75.5,18 M75.5,3
			C35.5,3,3,35.5,3,75.5S35.5,148,75.5,148S148,115.5,148,75.5S115.5,3,75.5,3L75.5,3z"/>
	</g>
	<g>
		<path class="st2" d="M75.5,148C35.5,148,3,115.5,3,75.5S35.5,3,75.5,3"/>
	</g>
</g>
</svg>
