<?xml version="1.0" encoding="utf-8"?>
<!-- Generator: Adobe Illustrator 23.0.5, SVG Export Plug-In . SVG Version: 6.00 Build 0)  -->
<svg version="1.1" id="Capa_1" xmlns="http://www.w3.org/2000/svg" xmlns:xlink="http://www.w3.org/1999/xlink" x="0px" y="0px"
	 viewBox="0 0 512 512" style="enable-background:new 0 0 512 512;" xml:space="preserve">
<style type="text/css">
	.st0{fill:#FFFFFF;}
</style>
<g>
	<g>
		<path class="st0" d="M437,75C388.7,26.6,324.4,0,256,0S123.3,26.6,75,75C26.6,123.3,0,187.6,0,256s26.6,132.7,75,181
			c48.4,48.4,112.6,75,181,75c42.4,0,84.4-10.6,121.5-30.6c7.5-4,10.3-13.4,6.2-20.9c-4-7.5-13.4-10.3-20.9-6.2
			c-32.6,17.6-69.6,26.9-106.9,26.9c-124.2,0-225.2-101-225.2-225.2S131.8,30.8,256,30.8c124.2,0,225.2,101,225.2,225.2
			c0,29.4-7.1,64.4-13.5,77.4c-5.7,11.5-21.8,27.8-39.8,27.8c-23.3,0-42.3-19-42.3-42.3V156.5c0-8.5-6.9-15.4-15.4-15.4
			s-15.4,6.9-15.4,15.4v15.7c-23.8-28-59.3-45.8-98.8-45.8c-71.5,0-129.6,58.1-129.6,129.6c0,71.5,58.1,129.6,129.6,129.6
			c40.8,0,77.3-19,101.1-48.6c8.1,31.5,36.8,54.9,70.8,54.9c29.7,0,56.4-22.6,67.4-45c9.4-19,16.7-59,16.7-91
			C512,187.6,485.4,123.3,437,75z M256,354.8c-54.5,0-98.8-44.3-98.8-98.8s44.3-98.8,98.8-98.8s98.8,44.3,98.8,98.8
			S310.5,354.8,256,354.8z"/>
	</g>
</g>
</svg>
