<?xml version="1.0" encoding="utf-8"?>
<!-- Generator: Adobe Illustrator 23.0.5, SVG Export Plug-In . SVG Version: 6.00 Build 0)  -->
<svg version="1.1" id="Calque_1" xmlns="http://www.w3.org/2000/svg" xmlns:xlink="http://www.w3.org/1999/xlink" x="0px" y="0px"
	 viewBox="0 0 139 139" style="enable-background:new 0 0 139 139;" xml:space="preserve">
<style type="text/css">
	.st0{fill:none;}
	.st1{fill:#FFFFFF;}
	.st2{enable-background:new    ;}
</style>
<title>dyma_ico</title>
<g>
	<g>
		<path class="st0" d="M46.5,44.3H11.6c-0.9,0-1.6,0.7-1.6,1.6v48.2c0,0,0,0,0,0c0,0.9,0.7,1.6,1.6,1.6h34.8c0,0,0,0,0,0
			c0.9,0,1.6-0.7,1.6-1.6V46c0,0,0,0,0,0C48.1,45,47.4,44.3,46.5,44.3z"/>
		<path class="st1" d="M115.2,76c-0.6,0.3-1,0.7-1.3,1.1c-0.3,0.4-0.4,0.9-0.4,1.4c0,1,0.3,1.6,0.8,2.1c0.5,0.4,1.2,0.6,2.1,0.6
			c0.5,0,1-0.1,1.5-0.2c0.4-0.1,0.9-0.3,1.3-0.5c0.4-0.2,0.8-0.5,1.1-0.7c0.4-0.3,0.7-0.6,1.1-1.1v-3.8c-1.5,0-2.8,0.1-3.8,0.3
			S115.9,75.7,115.2,76z"/>
		<path class="st1" d="M69.5,0C69.5,0,69.5,0,69.5,0C31.1,0,0,31.1,0,69.5S31.1,139,69.5,139S139,107.9,139,69.5
			C139,31.1,107.9,0,69.5,0z M48.1,46v48.1c0,0.9-0.7,1.6-1.6,1.6c0,0,0,0,0,0H11.6c-0.9,0-1.6-0.7-1.6-1.6c0,0,0,0,0,0V45.9
			c0-0.9,0.8-1.6,1.6-1.6h34.8C47.4,44.3,48.1,45,48.1,46C48.1,46,48.1,46,48.1,46z M59.8,90.7c-0.2,0.4-0.4,0.7-0.6,0.9
			c-0.2,0.2-0.6,0.3-1.1,0.3h-3.8l4-9l-8.7-20.9h4.5c0.4,0,0.7,0.1,1,0.3c0.2,0.2,0.4,0.4,0.5,0.7l4.6,11.7c0.2,0.4,0.3,0.8,0.4,1.2
			c0.1,0.4,0.2,0.8,0.3,1.2c0.1-0.4,0.2-0.8,0.4-1.2s0.3-0.8,0.4-1.2l4.3-11.7c0.1-0.3,0.3-0.5,0.6-0.7c0.3-0.2,0.5-0.3,0.9-0.3h4.1
			L59.8,90.7z M104.6,84.5h-5.2V70.1c0-1.4-0.3-2.5-0.9-3.2c-0.6-0.7-1.5-1.1-2.6-1.1c-0.5,0-1,0.1-1.5,0.3
			c-0.5,0.2-0.8,0.5-1.2,0.8s-0.6,0.8-0.8,1.4c-0.2,0.5-0.3,1.2-0.3,1.9v14.4H87V70.1c0-1.5-0.3-2.6-0.9-3.3c-0.6-0.7-1.4-1-2.6-1
			c-0.7,0-1.4,0.2-2.1,0.6c-0.6,0.4-1.3,0.9-1.8,1.6v16.5h-5.2V61.9h3.2c0.7,0,1.1,0.3,1.3,1l0.3,1.7c0.4-0.4,0.8-0.8,1.2-1.2
			c0.4-0.4,0.9-0.7,1.3-0.9c0.5-0.3,1-0.5,1.5-0.6c0.5-0.2,1.1-0.2,1.8-0.2c1.4,0,2.5,0.4,3.3,1.2s1.5,1.8,2,3.1
			c0.3-0.7,0.8-1.4,1.3-1.9c0.5-0.5,1.1-1,1.7-1.3s1.2-0.6,1.9-0.7s1.4-0.2,2-0.2c1.2,0,2.2,0.2,3.2,0.6c0.9,0.4,1.7,0.9,2.3,1.7
			s1.1,1.6,1.4,2.7c0.3,1.1,0.5,2.3,0.5,3.6V84.5z M124.2,84.5c-0.5,0-0.9-0.1-1.1-0.2c-0.3-0.2-0.5-0.5-0.6-0.9l-0.5-1.6
			c-0.5,0.5-1.1,1-1.6,1.4c-0.5,0.4-1.1,0.7-1.6,1c-0.6,0.3-1.2,0.5-1.8,0.6c-0.6,0.1-1.3,0.2-2.1,0.2c-0.9,0-1.7-0.1-2.5-0.4
			s-1.4-0.6-2-1.2c-0.6-0.5-1-1.2-1.3-1.9c-0.3-0.8-0.5-1.7-0.5-2.7c0-0.9,0.2-1.7,0.6-2.5c0.4-0.8,1.1-1.6,2.1-2.3
			c1-0.7,2.3-1.2,4-1.7s3.7-0.7,6.1-0.7v-1.3c0-1.5-0.3-2.7-0.9-3.4c-0.6-0.7-1.5-1.1-2.6-1.1c-0.8,0-1.5,0.1-2.1,0.3
			c-0.6,0.2-1,0.4-1.5,0.7c-0.4,0.3-0.8,0.5-1.1,0.7c-0.3,0.2-0.7,0.3-1.2,0.3c-0.3,0-0.6-0.1-0.9-0.3c-0.3-0.2-0.5-0.4-0.6-0.7
			l-0.9-1.7c2.5-2.4,5.4-3.6,8.9-3.6c1.3,0,2.4,0.2,3.4,0.6c1,0.4,1.8,1,2.5,1.8c0.7,0.8,1.2,1.7,1.6,2.8c0.4,1.1,0.5,2.2,0.5,3.5
			v14.3H124.2z"/>
	</g>
	<g class="st2">
		<path class="st1" d="M42.3,68.6c0,2.3-0.4,4.5-1.1,6.4s-1.8,3.6-3.1,5s-2.9,2.5-4.8,3.3c-1.9,0.8-4,1.2-6.3,1.2H15.5V52.7H27
			c2.3,0,4.4,0.4,6.3,1.2c1.9,0.8,3.5,1.9,4.8,3.3c1.3,1.4,2.4,3.1,3.1,5S42.3,66.2,42.3,68.6z M36.6,68.6c0-1.7-0.2-3.3-0.7-4.7
			c-0.4-1.4-1.1-2.6-1.9-3.5s-1.8-1.7-3-2.2s-2.5-0.8-4-0.8h-5.9v22.4H27c1.5,0,2.8-0.3,4-0.8s2.2-1.3,3-2.2c0.8-1,1.5-2.1,1.9-3.5
			C36.3,71.9,36.6,70.3,36.6,68.6z"/>
	</g>
</g>
</svg>
