<?xml version="1.0" encoding="utf-8"?>
<!-- Generator: Adobe Illustrator 23.0.5, SVG Export Plug-In . SVG Version: 6.00 Build 0)  -->
<svg version="1.1" id="Capa_1" xmlns="http://www.w3.org/2000/svg" xmlns:xlink="http://www.w3.org/1999/xlink" x="0px" y="0px"
	 viewBox="0 0 91.2 91.2" style="enable-background:new 0 0 91.2 91.2;" xml:space="preserve">
<style type="text/css">
	.st0{fill:#FFFFFF;}
</style>
<g>
	<g>
		<path class="st0" d="M45.2,37.8c-1.1,0-1.8,0.1-2.3,0.2v14.5c0.4,0.1,1.1,0.1,1.7,0.1c4.5,0,7.5-2.5,7.5-7.8
			C52.2,40.3,49.5,37.8,45.2,37.8z"/>
		<path class="st0" d="M25.8,37.8c-1,0-1.7,0.1-2.1,0.2v6.5c0.4,0.1,1,0.1,1.7,0.1c2.7,0,4.3-1.3,4.3-3.6
			C29.7,39,28.3,37.8,25.8,37.8z"/>
		<path class="st0" d="M59,0H12.3v91.2h66.5V27L55.2,10.7L59,0z M32.7,46.2c-1.7,1.6-4.2,2.3-7.2,2.3c-0.7,0-1.3,0-1.7-0.1v7.9h-5
			V34.5c1.5-0.3,3.7-0.5,6.8-0.5c3.1,0,5.3,0.6,6.8,1.8c1.4,1.1,2.4,3,2.4,5.1C34.7,43.1,34,44.9,32.7,46.2z M60.8,34.2h13.5v4.1
			h-8.5v5.1h8v4.1h-8v8.9h-5C60.8,56.3,60.8,34.2,60.8,34.2z M57.5,44.7c0,4.2-1.5,7.2-3.7,9c-2.3,1.9-5.9,2.9-10.2,2.9
			c-2.6,0-4.4-0.2-5.7-0.3V34.5c1.8-0.3,4.2-0.5,6.8-0.5c4.2,0,6.9,0.8,9.1,2.4C56,38.1,57.5,40.8,57.5,44.7z"/>
		<polygon class="st0" points="63.7,0 60.6,8.7 78.9,21.3 		"/>
	</g>
</g>
</svg>
