<?xml version="1.0" encoding="utf-8"?>
<!-- Generator: Adobe Illustrator 23.0.5, SVG Export Plug-In . SVG Version: 6.00 Build 0)  -->
<svg version="1.1" id="LOGO" xmlns="http://www.w3.org/2000/svg" xmlns:xlink="http://www.w3.org/1999/xlink" x="0px" y="0px"
	 viewBox="0 0 1259.1 852.2" style="enable-background:new 0 0 1259.1 852.2;" xml:space="preserve">
<style type="text/css">
	.st0{fill:none;}
	.st1{fill:#FFFFFF;}
</style>
<title>LOGO_S-4810_FOND-COULEUR_FINAL</title>
<polygon class="st0" points="1139,646.7 864.3,170.7 796,289 1002.3,646.5 "/>
<path class="st1" d="M748,491.8c0,0.7-1.4,1.2-2.1,2c-6.2,7.1-12.5,14.1-18.5,21.4c-2,2.4-1.2,4.9,2.4,5.4
	c5.2,0.8,10.7,0.7,15.4,2.5c6.8,2.6,15.6,3.3,17.1,13.4c0.4,2.4,3,4.5,4.6,6.8c0.3-0.7,0.6-1.4,0.9-2c3.1-1.4,6.4-2.4,9.1-4.4
	c4.2-3.1,10.6-6.3,11.3-10.3c1.3-7.8,0-16.2-1.4-24.2s-5.1-15.7-5.8-23.7c-1.3-17.9,0.8-35.9,6.2-53c3.6-11.6-0.5-21.3-11.8-22.8
	c-2,6-4.1,12.1-6.1,18.1s-3.6,12.5-6.5,18.1c-3.7,7.3-1.7,17.1-10.9,22c1.4,2.2,3.1,3.8,3.5,5.7c0.6,3.6,1.7,8,0.3,11
	C753.6,482.4,748.2,485.6,748,491.8z"/>
<path class="st1" d="M463.2,290.2c4.6,7,21.5,28.8,26.8,28.1c3.9-0.5,9.6,2.9,11.8,1c3.5-2.9,7.2-8.9,6.4-12.8
	c-2.7-14.7,6.5-22.1,15.9-29.3c7.2-5.4,10.8-12.7,8.7-21.6c-3.4-13.9-3.4-14-17.6-13.8c-5.4,0.1-10.6,0.4-13.5-5.7
	c-0.5-1-2.6-1.6-4-1.6l-4-0.1l-22.2,38.4L394,139.1L92.7,660.9l1073.8,1.7L864.1,139l-77.4,134.1L629.1,0l-128,221.7
	c14-2.6,28.1-4.5,42.2-6.6c4.6-0.7,5.3-2.4,4.3-6.6c-1.9-7.9,3.4-20.3,9.3-22.9c8-3.5,17.5,2.5,18.1,11.3c0.2,3.2,0.8,6.3,1.1,8.7
	c-1.9,3.2-4.1,5.6-4.7,8.4c-0.2,0.9,3.4,3.5,5.6,4c9.9,2.5,16.9,8.2,22.2,17c2.6,4.3,6.2,7.9,10.5,10.5c9.9,6,18.4,13.6,26.8,21.5
	c5.6,5.3,12,10,20.8,10.2c-1.1,0.8-0.9,2.6-2.9,4.1l7.8,5.7c-2,1-4,2.1-5.8,3.3c-4.2,3.1-7.2,2.9-9.5-1.8
	c-4.6-9.2-12.2-14.6-21-19.4c-6.9-3.8-12.7-9.5-19.2-14c-2-1.4-5.7-3.4-6.8-2.6c-6.1,4.3-9.6,1.3-13.4-5c-2.4,9.2-5.2,17-6.4,25
	c-1.3,8.5,0.5,17.8-2,25.9s-1.3,15.4-0.4,22.9c3.2,25.6-5.3,48.7-13.6,72c-1.5,4.3-1.5,9.5-0.9,14.2c1.6,12.6,8.1,24.4,6,37.6
	c-1.1,6.9-1.7,13.8-2.3,20.7c-0.1,1.5,1,3.1,1.6,4.7c1.5-0.8,2.9-1.6,4.2-2.6c0.8-0.9,1.4-1.9,1.9-2.9c7.3-11.8,14.7-23.7,22-35.5
	c2.4-3.9,7-4.5,9.5-0.5c3.4,5.5,7.8,8.8,13.6,11.8c6,3.2,11.2,8.8,10.7,17.3c-0.5,8.3-0.1,16.8,0,25.1c0.2,2.4,0.6,4.7,1.1,7.1
	c3-5.4,4.6-10.9,8.1-14.2c5.7-5.2,7.5-11.7,9.7-18.4c0.3-1,3.6-1.6,5.4-1.4c5.1,0.8,10.1,2.5,15.2,3c6.8,0.6,10.2-3.4,8.2-9.7
	c-1.2-3.9-0.9-6.5,2.1-9.3c1.9-1.8,3.9-4.3,4.4-6.8c1.4-6.8,6.3-9.1,12-10.6c4.7-1.2,7.3-3.5,6.8-9c-0.4-3.4,0.6-6.9,1-10.3
	c9.7-1.8,9.6-1.8,14,6.5c1.3,2.4,3.3,4.5,4.2,7c1.5,4.3,2.4,8.8,3.6,13.2l2.9,10.8l4.7-5.5c5.9,3.3,11.6,6.7,16.5,4.4
	c0.5-4.5,0.5-7.4,1.2-10.1c3.1-11.6,6.2-23.2,9.6-34.7c1.1-3.7,3.2-7,4.4-10.7c0.8-2.5,2.2-6.6,1.1-7.5c-2.4-2.1-6.2-3.7-9.3-3.5
	c-4.7,0.3-9.3,2.2-13.9,3.7c-7.5,2.6-14.2-0.9-20.9-3c-8.8-2.9-17-7.7-26.9-6.8c-4.6,0.4-3.6-3.8-4-6.3c-0.1-0.6,6-0.6,7.8-1.3
	c2-0.8,1.2-2.7,3.5-3.3c3.6,9,13.1,8.2,21.4,10c2.6,0.6,5.4,0.5,8.1,1.1c7.7,1.9,14.1-0.9,20.3-4.9c0.7-0.4,1.5-1.8,1.2-2.3
	c-0.4-0.9-1.6-2-2.4-2.1c-4.9,0-6.9-2.7-9-6.9c-1.3-2.7-5.1-5.1-8.2-5.8c-10-2.3-18-7.9-25.9-14c-4.9-3.7-10.2-6.9-15.8-9.5
	c-6.8-3.3-8.2-7.2-4.6-12.8c1.3,0.3,4.3,4.5,5.6,4.8c2.7,0.5,3.7-2.9,6.9-2.3c0.1,10.7,10.8,12.7,19.5,16.8c4.4,1.9,8.8,4.1,13,6.4
	c6.1,3.8,13.3,5.8,20.5,5.7c1.2-0.2,2.4-0.5,3.5-1.1c-1.3-4.6,4.2-8.6,1.5-13.3c-0.4-0.8-0.6-1.8-0.4-2.7c1.5-5.5,8-8.8,16.9-8.8
	c6.1,0,10.5,2.8,11.3,8.6c0.5,4-0.5,8.4-1.8,12.2c-2.2,6.3-1.7,11.1,3.5,15.1c8.6,6.7,17.1,13.5,22.8,23c3.7,6.2,7,12.5,10.4,18.8
	c0.7,1.2,0.8,2.8,1.8,3.7c7.8,7.5,2.6,16-1.3,22.9c-2.6,4.6-5.9,8.8-9.7,12.5c-6.8,6.9-8.3,15.8-11.6,24.2c-3,7.7-2.5,15.2-0.4,23.4
	c2.5,10.1,1.8,21,4.3,31.1c2,7.9,3,16.1,3,24.3c0,2.2,3.2,5.1,1.6,8.7c-2.7,6.3,38.1,41.1,73.7,69.4c18.6,14.7,35.7,27.7,44.4,33.8
	l-807.1-1.3L394,170.7L463.2,290.2"/>
<path class="st1" d="M555.7,359.7c2.4-8.1,6.3-16.2,4-25c-1.9-7.5-4.2-15-6.6-22.3c-1.3-4-3-7.9-5.1-11.6c-3.2-5.4-11.7-6.7-17-3.6
	c-7.5,4.3-10.1,11.4-11.3,19.2c-1.3,8.1-5.1,12-13.4,13.4c-1.4,0.2-3.7,1.2-3.8,2c-0.2,1.4,0.9,3.1,1.8,4.4c1.4,1.6,2.8,3.2,4.3,4.7
	c6.3,7,3.5,15.5,3.1,23.3c-0.3,6.5,0.2,11.4,6.5,14.4c1.8,0.9,3.5,2.2,5,3.7c2.6,2.5,6.6,5,6.9,7.8c1.3,9.7,7.6,14.4,14.5,18.2
	c1.9-3.9,3.6-7.3,5-10.7c0.4-0.9,0.3-2.8-0.2-3.1c-4.1-2.5-2.2-6-1.3-8.9C550.4,376.8,553.2,368.3,555.7,359.7z"/>
</svg>
